<svg width="60" height="60" viewBox="0 0 60 60" fill="none" xmlns="http://www.w3.org/2000/svg">
<path d="M20.6143 45.3H18.7714V40.2857C18.7714 38.8714 18.3429 38.2286 17.6572 38.2286C16.9286 38.2286 16.2 39 15.9429 40.1143V45.3429H14.1V40.3286C14.1 38.8714 13.6714 38.2714 12.9857 38.2714C12.2572 38.2714 11.5286 39 11.2714 40.1143V45.3429H9.42859V36.3857H11.1V38.0571C11.6572 36.9 12.6 36.2571 13.8 36.2571C15 36.2571 15.6429 37.0714 15.8572 38.1429C16.4572 36.9 17.4 36.2571 18.5572 36.2571C20.3572 36.2571 20.7429 38.0571 20.7429 39.7714C20.6143 39.7286 20.6143 45.3 20.6143 45.3Z" fill="#636363"/>
<path d="M21.6 44.3143L22.3285 42.7714C23.2285 43.5 24.1285 43.8857 25.0285 43.8857C25.8 43.8857 26.2714 43.5429 26.2714 42.9C26.2714 42.3 25.8 42.0429 24.5571 41.7C22.6285 41.1429 21.9857 40.5857 21.9857 39.2143C21.9857 37.3714 23.2714 36.2571 24.9 36.2571C25.9285 36.2571 27 36.6857 27.8571 37.3714L27.1285 38.7857C26.3143 38.1857 25.5857 37.8857 24.9 37.8857C24.2143 37.8857 23.7 38.1857 23.7 38.8714C23.7 39.4714 24.0428 39.6429 25.1571 39.9857C27.2143 40.5857 28.0285 41.1857 28.0285 42.6857C28.0285 44.4 26.8285 45.5143 25.0285 45.5143C23.8714 45.4714 22.4571 45 21.6 44.3143Z" fill="#636363"/>
<path d="M1.67139 44.3143L2.39996 42.7714C3.29996 43.5 4.19996 43.8857 5.09996 43.8857C5.87139 43.8857 6.34282 43.5429 6.34282 42.9C6.34282 42.3 5.87139 42.0429 4.62853 41.7C2.69996 41.1429 2.0571 40.5857 2.0571 39.2143C2.0571 37.3714 3.34282 36.2571 4.97139 36.2571C5.99996 36.2571 7.07139 36.6857 7.92853 37.3714L7.1571 38.7857C6.34282 38.1857 5.61424 37.8857 4.92853 37.8857C4.24282 37.8857 3.72853 38.1857 3.72853 38.8714C3.72853 39.4714 4.07139 39.6429 5.18567 39.9857C7.24282 40.5857 8.0571 41.1857 8.0571 42.6857C8.0571 44.4 6.8571 45.5143 5.0571 45.5143C3.94282 45.4714 2.52853 45 1.67139 44.3143Z" fill="#636363"/>
<path d="M10.8428 53.7C10.4142 53.7 10.0285 53.6143 9.64282 53.4857C9.2571 53.3571 8.91425 53.1429 8.6571 52.8857L9.12853 52.0714C9.42853 52.2857 9.72853 52.4571 9.98568 52.5429C10.2857 52.6286 10.5428 52.7143 10.8 52.7143C11.0571 52.7143 11.2285 52.6714 11.4 52.5429C11.5285 52.4571 11.6142 52.3286 11.6142 52.1143C11.6142 51.9429 11.5285 51.8143 11.3571 51.7286C11.1857 51.6429 10.9285 51.5571 10.5428 51.4286C10.2428 51.3429 9.98568 51.2571 9.72853 51.1714C9.51425 51.0857 9.34282 51 9.17139 50.8714C9.04282 50.7857 8.9571 50.6571 8.87139 50.5286C8.82853 50.4 8.78568 50.2286 8.78568 50.0571C8.78568 49.8 8.82853 49.5857 8.9571 49.3714C9.04282 49.1571 9.17139 48.9857 9.38568 48.8143C9.5571 48.6429 9.72853 48.5571 9.98568 48.4714C10.2 48.3857 10.4571 48.3429 10.7142 48.3429C11.0571 48.3429 11.4 48.3857 11.7 48.5143C12 48.6 12.3 48.8143 12.5571 49.0714L12.0857 49.8857C11.8285 49.6714 11.6142 49.5429 11.3571 49.4571C11.1428 49.3714 10.8857 49.3286 10.6714 49.3286C10.4571 49.3286 10.2857 49.3714 10.1571 49.4571C10.0285 49.5429 9.94282 49.6714 9.94282 49.8857C9.94282 49.9714 9.98568 50.0571 9.98568 50.1C10.0285 50.1429 10.0714 50.1857 10.1571 50.2714C10.2428 50.3143 10.3285 50.3571 10.4571 50.4C10.5857 50.4429 10.7142 50.4857 10.8857 50.5286C11.2285 50.6143 11.4857 50.7 11.7428 50.8286C11.9571 50.9143 12.1714 51.0429 12.3 51.1286C12.4714 51.2571 12.5571 51.3857 12.6428 51.5571C12.7285 51.7286 12.7285 51.9 12.7285 52.1143C12.7285 52.5857 12.5571 53.0143 12.2142 53.3143C11.8714 53.5714 11.4 53.7 10.8428 53.7Z" fill="#9D9DA0"/>
<path d="M14.8713 53.7C14.3999 53.7 14.0142 53.5286 13.7571 53.1857C13.4999 52.8429 13.3713 52.3286 13.3713 51.6857V48.4714H14.5713V51.3857C14.5713 52.1571 14.8285 52.5857 15.3856 52.5857C15.5999 52.5857 15.8571 52.5 16.0713 52.3714C16.2856 52.2 16.4999 51.9857 16.6285 51.6857V48.5143H17.8713V52.1143C17.8713 52.2429 17.9142 52.3286 17.9571 52.4143C17.9999 52.4571 18.0856 52.5 18.1713 52.5V53.6143C18.0428 53.6571 17.9571 53.6571 17.8713 53.6571C17.7856 53.6571 17.6999 53.6571 17.6571 53.6571C17.4428 53.6571 17.2285 53.6143 17.0999 53.4857C16.9713 53.4 16.8856 53.2286 16.8856 53.0571L16.8428 52.6286C16.6285 52.9714 16.3713 53.2286 16.0285 53.4429C15.6428 53.6571 15.2571 53.7 14.8713 53.7Z" fill="#9D9DA0"/>
<path d="M20.8714 53.7C20.5286 53.7 20.2286 53.6143 19.9286 53.4857C19.6286 53.3571 19.4143 53.1429 19.2 52.9286C18.9857 52.7143 18.8571 52.4143 18.7286 52.0714C18.6428 51.7714 18.5571 51.3857 18.5571 51.0429C18.5571 50.7 18.6 50.3143 18.7286 50.0143C18.8571 49.7143 18.9857 49.4143 19.1571 49.1571C19.3286 48.9429 19.5857 48.7286 19.8428 48.6C20.1 48.4714 20.4 48.3857 20.7 48.3857C21.0428 48.3857 21.3857 48.4714 21.6428 48.6857C21.9428 48.8571 22.1571 49.1143 22.3286 49.4143V46.5H23.5714V52.1143C23.5714 52.2429 23.6143 52.3286 23.6143 52.4143C23.6571 52.4571 23.7428 52.5 23.8286 52.5V53.6143C23.6143 53.6571 23.4428 53.7 23.3143 53.7C23.1 53.7 22.8857 53.6571 22.7571 53.5286C22.6286 53.4 22.5428 53.2714 22.5428 53.0571L22.5 52.7571C22.3286 53.1 22.0714 53.3143 21.7714 53.4857C21.5143 53.6571 21.2143 53.7 20.8714 53.7ZM21.2143 52.5857C21.3428 52.5857 21.4286 52.5429 21.5571 52.5429C21.6857 52.5 21.7714 52.4571 21.9 52.3714C22.0286 52.2857 22.1143 52.2 22.2 52.0714C22.2857 51.9857 22.3714 51.8571 22.3714 51.7286V50.5286C22.3286 50.3571 22.2428 50.2286 22.1571 50.1429C22.0714 50.0143 21.9857 49.9286 21.8571 49.8429C21.7714 49.7571 21.6428 49.6714 21.5143 49.6286C21.3857 49.5857 21.2571 49.5429 21.1714 49.5429C21 49.5429 20.8286 49.5857 20.6571 49.6714C20.4857 49.7571 20.3571 49.8857 20.2714 50.0143C20.1857 50.1857 20.0571 50.3143 20.0143 50.4857C19.9714 50.6571 19.9286 50.8714 19.9286 51.0857C19.9286 51.3 19.9714 51.5143 20.0143 51.6857C20.1 51.8571 20.1857 52.0286 20.3143 52.1571C20.4 52.2857 20.5714 52.3714 20.7428 52.4571C20.8286 52.5857 21 52.5857 21.2143 52.5857Z" fill="#9D9DA0"/>
<path d="M25.9285 53.7C25.7142 53.7 25.4999 53.6571 25.2856 53.5714C25.0714 53.4857 24.8999 53.3571 24.7714 53.2286C24.5999 53.0571 24.5142 52.9286 24.4285 52.7143C24.3428 52.5 24.2999 52.2857 24.2999 52.0714C24.2999 51.8571 24.3428 51.6 24.4714 51.3857C24.5571 51.1714 24.6856 51 24.8999 50.8714C25.0714 50.7 25.2856 50.6143 25.5428 50.5286C25.7999 50.4429 26.0571 50.4 26.3571 50.4C26.5714 50.4 26.7856 50.4429 26.9571 50.4429C27.1714 50.4857 27.3428 50.5286 27.5142 50.6143V50.3143C27.5142 49.9714 27.4285 49.7143 27.2571 49.5429C27.0856 49.3714 26.8285 49.2429 26.4428 49.2429C26.1856 49.2429 25.9285 49.2857 25.7142 49.4143C25.4571 49.5 25.2428 49.6286 24.9856 49.8429L24.5999 49.0286C25.1999 48.6 25.8856 48.3857 26.6142 48.3857C27.2999 48.3857 27.8571 48.5571 28.2428 48.9429C28.6285 49.3286 28.7999 49.8 28.7999 50.5286V52.1143C28.7999 52.2429 28.8428 52.3286 28.8856 52.4143C28.9285 52.4571 29.0142 52.5 29.0999 52.5V53.6143C28.8856 53.6571 28.7142 53.7 28.5428 53.7C28.3285 53.7 28.1142 53.6571 27.9856 53.5286C27.8571 53.4429 27.7714 53.2714 27.7714 53.1L27.7285 52.8C27.5142 53.1 27.2571 53.3143 26.9571 53.4857C26.6571 53.6571 26.3142 53.7 25.9285 53.7ZM26.3142 52.7571C26.5285 52.7571 26.7428 52.7143 26.9142 52.6286C27.0856 52.5429 27.2571 52.4571 27.3428 52.3286C27.4714 52.2429 27.5571 52.1143 27.5571 51.9857V51.3857C27.3856 51.3429 27.2571 51.3 27.0856 51.2571C26.9142 51.2143 26.7428 51.2143 26.6142 51.2143C26.3142 51.2143 26.0571 51.3 25.8428 51.4286C25.6285 51.5571 25.5428 51.7714 25.5428 51.9857C25.5428 52.2 25.6285 52.4143 25.7571 52.5429C25.8856 52.6714 26.0571 52.7571 26.3142 52.7571Z" fill="#9D9DA0"/>
<path d="M37.2428 53.6571H36V50.7857C36 50.3571 35.9142 50.1 35.7857 49.8857C35.6571 49.7143 35.4857 49.5857 35.2285 49.5857C34.9714 49.5857 34.7571 49.6714 34.5428 49.8857C34.3285 50.1 34.2 50.3571 34.0714 50.6571V53.6143H32.8285V50.7429C32.8285 50.3143 32.7428 50.0571 32.6142 49.8429C32.4857 49.6714 32.3142 49.5429 32.0571 49.5429C31.8 49.5429 31.5857 49.6286 31.3714 49.8429C31.1571 50.0571 31.0285 50.3143 30.9 50.6143V53.6143H29.6571V48.4714H30.7714V49.4143C30.9428 49.0714 31.2 48.8143 31.5 48.6429C31.8 48.4714 32.1857 48.3857 32.5714 48.3857C33 48.3857 33.3 48.4714 33.5142 48.6857C33.7285 48.9 33.8571 49.1571 33.9428 49.4571C34.1571 49.1143 34.3714 48.8571 34.6714 48.6429C34.9714 48.4714 35.3142 48.3429 35.7 48.3429C36 48.3429 36.2571 48.3857 36.4285 48.5143C36.6 48.6429 36.7714 48.7714 36.8571 48.9857C36.9428 49.1571 37.0285 49.4143 37.0714 49.6286C37.1142 49.8429 37.1142 50.1 37.1142 50.3571V53.5714H37.2428V53.6571Z" fill="#9D9DA0"/>
<path d="M40.3285 53.7C39.9428 53.7 39.5999 53.6143 39.2571 53.4857C38.9571 53.3571 38.6999 53.1429 38.4428 52.9286C38.2285 52.7143 38.0571 52.4143 37.9285 52.1143C37.7999 51.8143 37.7571 51.4714 37.7571 51.1286C37.7571 50.7857 37.7999 50.4429 37.9285 50.1C38.0571 49.8 38.2285 49.5 38.4428 49.2429C38.6571 49.0286 38.9142 48.8143 39.2571 48.6857C39.5571 48.5143 39.9428 48.4714 40.3285 48.4714C40.7142 48.4714 41.0571 48.5571 41.3999 48.6857C41.6999 48.8571 41.9571 49.0286 42.2142 49.2429C42.4285 49.4571 42.5999 49.7571 42.6857 50.0571C42.7714 50.3571 42.8571 50.7 42.8571 51.0429C42.8571 51.1286 42.8571 51.2143 42.8571 51.2571C42.8571 51.3429 42.8571 51.4286 42.8142 51.4714H39.0857C39.1285 51.6857 39.1714 51.8571 39.2142 52.0286C39.2999 52.2 39.3857 52.3286 39.5142 52.4571C39.6428 52.5429 39.7714 52.6714 39.8999 52.7143C40.0714 52.7571 40.1999 52.8 40.3714 52.8C40.6285 52.8 40.8428 52.7571 41.0571 52.6286C41.2714 52.5 41.3999 52.3286 41.4857 52.1571L42.5571 52.4571C42.3857 52.8429 42.0857 53.1857 41.6999 53.4C41.3571 53.5714 40.8857 53.7 40.3285 53.7ZM41.6142 50.6571C41.5714 50.2714 41.4428 49.9714 41.1857 49.7143C40.9714 49.5 40.6714 49.3714 40.3285 49.3714C40.1571 49.3714 40.0285 49.4143 39.8571 49.4571C39.6857 49.5 39.5571 49.6286 39.4714 49.7143C39.3857 49.8 39.2571 49.9286 39.2142 50.1C39.1285 50.2714 39.1285 50.4429 39.0857 50.6143L41.6142 50.6571ZM40.6714 47.9143L39.8571 47.6571L40.3285 46.5H41.4857L40.6714 47.9143Z" fill="#9D9DA0"/>
<path d="M46.3286 49.6286C45.9857 49.6286 45.6429 49.7143 45.3429 49.8429C45.0429 50.0143 44.8286 50.1857 44.7 50.5286V53.6143H43.4572V48.4714H44.5714V49.5429C44.6572 49.3714 44.7429 49.2 44.8714 49.0714C45 48.9429 45.0857 48.8143 45.2572 48.7286C45.3857 48.6429 45.5572 48.5571 45.6857 48.5143C45.8143 48.4714 45.9857 48.4286 46.1143 48.4286C46.2 48.4286 46.2429 48.4286 46.2857 48.4286C46.3286 48.4286 46.3714 48.4286 46.3714 48.4286L46.3286 49.6286Z" fill="#9D9DA0"/>
<path d="M46.8428 47.7857V46.5H48.0856V47.7857H46.8428ZM46.8428 53.6571V48.5143H48.0856V53.6143L46.8428 53.6571Z" fill="#9D9DA0"/>
<path d="M48.6857 51.0429C48.6857 50.7 48.7285 50.3571 48.8571 50.0571C48.9857 49.7571 49.1571 49.4571 49.3714 49.2429C49.5857 49.0286 49.8428 48.8143 50.1857 48.6857C50.4857 48.5143 50.8714 48.4714 51.2571 48.4714C51.7714 48.4714 52.2428 48.6 52.5857 48.8143C52.9285 49.0286 53.2285 49.3714 53.4 49.7571L52.2 50.1429C52.1142 49.9714 51.9857 49.8 51.7714 49.7143C51.6 49.6286 51.4285 49.5429 51.2142 49.5429C51.0428 49.5429 50.8714 49.5857 50.7428 49.6286C50.5714 49.7143 50.4428 49.8 50.3142 49.9286C50.2285 50.0571 50.1 50.2286 50.0571 50.4C49.9714 50.5714 49.9714 50.7857 49.9714 51C49.9714 51.2143 50.0142 51.4286 50.0571 51.6C50.1428 51.7714 50.2285 51.9429 50.3571 52.0714C50.4428 52.2 50.6142 52.2857 50.7857 52.3714C50.9571 52.4571 51.0857 52.4571 51.2571 52.4571C51.4714 52.4571 51.6857 52.4143 51.8571 52.2857C52.0285 52.1571 52.1571 52.0286 52.2428 51.8571L53.4428 52.2429C53.2714 52.6286 53.0142 52.9286 52.6285 53.1857C52.2428 53.4429 51.8142 53.5286 51.2571 53.5286C50.8714 53.5286 50.5285 53.4429 50.1857 53.3143C49.8857 53.1429 49.6285 52.9714 49.3714 52.7143C49.1571 52.5 48.9857 52.2 48.8571 51.8571C48.7285 51.7714 48.6857 51.4286 48.6857 51.0429Z" fill="#9D9DA0"/>
<path d="M55.3285 53.7C55.1142 53.7 54.8999 53.6571 54.6857 53.5714C54.4714 53.4857 54.3 53.3571 54.1714 53.2286C54 53.0571 53.9142 52.9286 53.8285 52.7143C53.7428 52.5 53.7 52.2857 53.7 52.0714C53.7 51.8571 53.7428 51.6 53.8714 51.3857C53.9571 51.1714 54.0857 51 54.2999 50.8714C54.4714 50.7 54.6857 50.6143 54.9428 50.5286C55.1999 50.4429 55.4571 50.4 55.7571 50.4C55.9714 50.4 56.1857 50.4429 56.3571 50.4429C56.5714 50.4857 56.7428 50.5286 56.9142 50.6143V50.3143C56.9142 49.9714 56.8285 49.7143 56.6142 49.5429C56.4428 49.3714 56.1857 49.2429 55.7999 49.2429C55.5428 49.2429 55.2857 49.2857 55.0714 49.4143C54.8571 49.5 54.6 49.6286 54.3428 49.8429L53.9571 49.0286C54.5571 48.6 55.2428 48.3857 55.9714 48.3857C56.6571 48.3857 57.2142 48.5571 57.5999 48.9429C57.9857 49.2857 58.1571 49.8 58.1571 50.5286V52.1143C58.1571 52.2429 58.1999 52.3286 58.2428 52.4143C58.2857 52.4571 58.3714 52.5 58.4571 52.5V53.6143C58.2428 53.6571 58.0714 53.7 57.9 53.7C57.6857 53.7 57.4714 53.6571 57.3428 53.5286C57.2142 53.4429 57.1285 53.2714 57.1285 53.1L57.0857 52.8C56.8714 53.1 56.6142 53.3143 56.3142 53.4857C55.9714 53.6571 55.6714 53.7 55.3285 53.7ZM55.6714 52.7571C55.8857 52.7571 56.1 52.7143 56.2714 52.6286C56.4428 52.5429 56.6142 52.4571 56.7 52.3286C56.8285 52.2429 56.9142 52.1143 56.9142 51.9857V51.3857C56.7428 51.3429 56.6142 51.3 56.4428 51.2571C56.2714 51.2143 56.1 51.2143 55.9714 51.2143C55.6714 51.2143 55.4142 51.3 55.2 51.4286C54.9857 51.6 54.9 51.7714 54.9 51.9857C54.9 52.2 54.9857 52.4143 55.1142 52.5429C55.2428 52.6714 55.4142 52.7571 55.6714 52.7571Z" fill="#9D9DA0"/>
<path d="M7.37148 1.92857H1.80005V33.2143H7.37148V1.92857Z" fill="#636363"/>
<path d="M7.37148 48.2143H1.80005V53.7857H7.37148V48.2143Z" fill="#636363"/>
<path d="M3.29995 56.8286C3.25709 56.7857 3.25709 56.7429 3.21423 56.7429C3.17138 56.7 3.12852 56.7 3.0428 56.6571C2.99995 56.6143 2.95709 56.6143 2.87138 56.6143C2.78566 56.5714 2.69995 56.5714 2.65709 56.5714C2.48566 56.5714 2.35709 56.6143 2.27138 56.6571C2.18566 56.7429 2.1428 56.8714 2.1428 57C2.1428 57.0857 2.1428 57.1286 2.18566 57.1714C2.22852 57.2143 2.22852 57.2571 2.27138 57.3C2.31423 57.3429 2.35709 57.3429 2.4428 57.3857C2.52852 57.4286 2.61423 57.4286 2.69995 57.4714C2.82852 57.5143 2.91423 57.5143 2.99995 57.5571C3.08566 57.6 3.17138 57.6429 3.21423 57.6857C3.29995 57.7286 3.3428 57.8143 3.38566 57.9C3.42852 57.9857 3.42852 58.0714 3.42852 58.2C3.42852 58.3286 3.38566 58.4143 3.38566 58.5C3.3428 58.5857 3.29995 58.6714 3.21423 58.7143C3.12852 58.7571 3.0428 58.8 2.95709 58.8429C2.87138 58.8857 2.7428 58.8857 2.61423 58.8857C2.4428 58.8857 2.27138 58.8429 2.1428 58.8C1.97138 58.7571 1.8428 58.6286 1.71423 58.5429L1.8428 58.2429C1.88566 58.2857 1.92852 58.3286 1.97138 58.3714C2.01423 58.4143 2.05709 58.4571 2.1428 58.4571C2.22852 58.5 2.31423 58.5 2.35709 58.5429C2.4428 58.5857 2.52852 58.5857 2.61423 58.5857C2.78566 58.5857 2.91423 58.5429 2.99995 58.5C3.08566 58.4143 3.12852 58.3286 3.12852 58.2C3.12852 58.1143 3.08566 58.0714 3.08566 58.0286C3.0428 57.9857 2.99995 57.9429 2.95709 57.9C2.91423 57.8571 2.82852 57.8143 2.7428 57.8143C2.65709 57.7714 2.57138 57.7714 2.4428 57.7286C2.35709 57.6857 2.22852 57.6429 2.1428 57.6429C2.05709 57.6 1.97138 57.5571 1.92852 57.5143C1.88566 57.4714 1.8428 57.4286 1.79995 57.3429C1.75709 57.2571 1.75709 57.1714 1.75709 57.0857C1.75709 56.9571 1.79995 56.8714 1.79995 56.7429C1.8428 56.6571 1.88566 56.5714 1.97138 56.5286C2.05709 56.4429 2.1428 56.4429 2.22852 56.3571C2.31423 56.3143 2.4428 56.3143 2.57138 56.3143C2.7428 56.3143 2.87138 56.3571 2.99995 56.4C3.12852 56.4429 3.21423 56.5286 3.3428 56.6143L3.29995 56.8286Z" fill="#9D9DA0"/>
<path d="M3.98568 56.3143L4.67139 57.6429L5.35711 56.3143H5.65711L4.79997 57.9429V58.8857H4.49997V57.9429L3.64282 56.3143H3.98568Z" fill="#9D9DA0"/>
<path d="M7.32851 56.8286C7.28566 56.7857 7.28566 56.7429 7.2428 56.7429C7.19994 56.7 7.15708 56.7 7.07137 56.6571C7.02851 56.6143 6.98566 56.6143 6.89994 56.6143C6.85708 56.5714 6.77137 56.5714 6.68566 56.5714C6.51423 56.5714 6.38566 56.6143 6.29994 56.6571C6.21423 56.7429 6.17137 56.8286 6.17137 56.9571C6.17137 57.0429 6.17137 57.0857 6.21423 57.1286C6.25708 57.1714 6.25708 57.2143 6.29994 57.2571C6.3428 57.3 6.38566 57.3 6.47137 57.3429C6.55708 57.3857 6.6428 57.3857 6.72851 57.4286C6.85708 57.4714 6.9428 57.4714 7.02851 57.5143C7.11423 57.5571 7.19994 57.6 7.2428 57.6429C7.32851 57.6857 7.37137 57.7714 7.41423 57.8571C7.45708 57.9429 7.45708 58.0286 7.45708 58.1571C7.45708 58.2857 7.41423 58.3714 7.41423 58.4571C7.37137 58.5429 7.32851 58.6286 7.2428 58.6714C7.15708 58.7143 7.07137 58.7571 6.98565 58.8C6.89994 58.8429 6.77137 58.8429 6.6428 58.8429C6.47137 58.8429 6.29994 58.8 6.17137 58.7571C5.99994 58.7143 5.87137 58.5857 5.7428 58.5L5.87137 58.2C5.91423 58.2429 5.95708 58.2857 5.99994 58.3286C6.0428 58.3714 6.12851 58.4143 6.17137 58.4143C6.25708 58.4571 6.3428 58.4571 6.38565 58.5C6.42851 58.5429 6.55708 58.5429 6.6428 58.5429C6.81423 58.5429 6.9428 58.5 7.02851 58.4571C7.11423 58.3714 7.15708 58.2857 7.15708 58.1571C7.15708 58.0714 7.11423 58.0286 7.11423 57.9857C7.07137 57.9429 7.02851 57.9 6.98565 57.8571C6.9428 57.8143 6.85708 57.7714 6.77137 57.7714C6.68566 57.7286 6.59994 57.7286 6.47137 57.6857C6.38566 57.6429 6.25708 57.6 6.17137 57.6C6.08566 57.5571 5.99994 57.5143 5.95708 57.4714C5.91423 57.4286 5.87137 57.3857 5.82851 57.3C5.78566 57.2143 5.78566 57.1286 5.78566 57.0429C5.78566 56.9143 5.82851 56.8286 5.82851 56.7C5.87137 56.6143 5.91423 56.5286 5.99994 56.4857C6.08566 56.4 6.17137 56.4 6.25708 56.3143C6.3428 56.2714 6.47137 56.2714 6.59994 56.2714C6.77137 56.2714 6.89994 56.3143 7.02851 56.3571C7.15708 56.4 7.2428 56.4857 7.37137 56.5714L7.32851 56.8286Z" fill="#9D9DA0"/>
<path d="M9.55709 56.6143H8.78566V58.9286H8.48566V56.6143H7.71423V56.3143H9.55709V56.6143Z" fill="#9D9DA0"/>
<path d="M11.3999 58.5857V58.8857H9.85706V56.3143H11.3999V56.6143H10.1999V57.4286H11.2713V57.7286H10.1999V58.5857H11.3999Z" fill="#9D9DA0"/>
<path d="M13.7571 58.8857V56.9143L13.0285 58.4571H12.8571L12.1285 56.9143V58.8857H11.8285V56.3143H12.1285L12.9428 57.9857L13.7571 56.3143H14.0571V58.8857H13.7571Z" fill="#9D9DA0"/>
<path d="M15.9428 56.8286C15.8999 56.7857 15.8999 56.7429 15.8571 56.7429C15.8142 56.7 15.7713 56.7 15.6856 56.6571C15.6428 56.6143 15.5999 56.6143 15.5142 56.6143C15.4713 56.5714 15.3856 56.5714 15.2999 56.5714C15.1285 56.5714 14.9999 56.6143 14.9142 56.6571C14.8285 56.7429 14.7856 56.8286 14.7856 56.9571C14.7856 57.0429 14.7856 57.0857 14.8285 57.1286C14.8713 57.1714 14.8713 57.2143 14.9142 57.2571C14.9571 57.3 14.9999 57.3 15.0856 57.3429C15.1713 57.3857 15.2571 57.3857 15.3428 57.4286C15.4713 57.4714 15.5571 57.4714 15.6428 57.5143C15.7285 57.5571 15.8142 57.6 15.8571 57.6429C15.9428 57.6857 15.9856 57.7714 16.0285 57.8571C16.0713 57.9429 16.0713 58.0286 16.0713 58.1571C16.0713 58.2857 16.0285 58.3714 16.0285 58.4571C15.9856 58.5429 15.9428 58.6286 15.8571 58.6714C15.7713 58.7143 15.6856 58.7571 15.5999 58.8C15.5142 58.8429 15.3856 58.8429 15.2571 58.8429C15.0856 58.8429 14.9142 58.8 14.7856 58.7571C14.6142 58.7143 14.4856 58.5857 14.3571 58.5L14.4856 58.2C14.5285 58.2429 14.5713 58.2857 14.6142 58.3286C14.6571 58.3714 14.6999 58.4143 14.7856 58.4143C14.8713 58.4143 14.9571 58.4571 14.9999 58.5C15.0856 58.5429 15.1713 58.5429 15.2571 58.5429C15.4285 58.5429 15.5571 58.5 15.6428 58.4571C15.7285 58.3714 15.7713 58.2857 15.7713 58.1571C15.7713 58.0714 15.7285 58.0286 15.7285 57.9857C15.6856 57.9429 15.6428 57.9 15.5999 57.8571C15.5571 57.8143 15.4713 57.7714 15.3856 57.7714C15.2999 57.7286 15.2142 57.7286 15.0856 57.6857C14.9999 57.6429 14.8713 57.6 14.7856 57.6C14.6999 57.5571 14.6142 57.5143 14.5713 57.4714C14.5285 57.4286 14.4856 57.3857 14.4428 57.3C14.3999 57.2143 14.3999 57.1286 14.3999 57.0429C14.3999 56.9143 14.4428 56.8286 14.4428 56.7C14.4856 56.6143 14.5285 56.5286 14.6142 56.4857C14.6999 56.4 14.7856 56.4 14.8713 56.3143C14.9571 56.2714 15.0856 56.2714 15.2142 56.2714C15.3856 56.2714 15.5142 56.3143 15.6428 56.3571C15.7713 56.4 15.8571 56.4857 15.9856 56.5714L15.9428 56.8286Z" fill="#9D9DA0"/>
<path d="M19.3285 58.8857V56.9143L18.5999 58.4571H18.4285L17.6999 56.9143V58.8857H17.3999V56.3143H17.6999L18.5142 57.9857L19.3285 56.3143H19.6285V58.8857H19.3285Z" fill="#9D9DA0"/>
<path d="M20.8285 56.3143H21.0428L21.9856 58.8857H21.6856L21.4285 58.1571H20.4856L20.2285 58.8857H19.9285L20.8285 56.3143ZM21.3428 57.8571L20.9142 56.6571L20.4856 57.8571H21.3428Z" fill="#9D9DA0"/>
<path d="M22.5856 56.9143V58.8857H22.2856V56.3143H22.4999L23.9142 58.3286V56.3143H24.2142V58.8857H23.9999L22.5856 56.9143Z" fill="#9D9DA0"/>
<path d="M25.4143 56.3143H25.6286L26.5714 58.8857H26.2714L26.0143 58.1571H25.0714L24.8143 58.8857H24.5143L25.4143 56.3143ZM25.9714 57.8571L25.5429 56.6571L25.1143 57.8571H25.9714Z" fill="#9D9DA0"/>
<path d="M28.4999 58.5429C28.2857 58.7571 28.0714 58.8857 27.8142 58.8857C27.6428 58.8857 27.5142 58.8429 27.3857 58.8C27.2571 58.7571 27.1714 58.6286 27.0428 58.5C26.9571 58.3714 26.8714 58.2429 26.8285 58.0714C26.7857 57.9 26.7428 57.7714 26.7428 57.6C26.7428 57.4286 26.7857 57.2571 26.8285 57.1286C26.8714 56.9571 26.9571 56.8286 27.0428 56.7C27.1285 56.5714 27.2571 56.4857 27.3857 56.4C27.5142 56.3143 27.6428 56.3143 27.8142 56.3143C28.0285 56.3143 28.1999 56.3571 28.3714 56.4857C28.4999 56.5714 28.6285 56.7 28.7142 56.9143L28.4999 57.0857C28.4142 56.9143 28.3285 56.8286 28.1999 56.7429C28.1142 56.6571 27.9857 56.6571 27.8142 56.6571C27.7285 56.6571 27.5999 56.7 27.5142 56.7429C27.4285 56.7857 27.3428 56.8714 27.2999 56.9571C27.2142 57.0429 27.1714 57.1714 27.1285 57.3C27.0857 57.4286 27.0857 57.5571 27.0857 57.6857C27.0857 57.8143 27.1285 57.9429 27.1285 58.0714C27.1714 58.2 27.2142 58.2857 27.2999 58.4143C27.3857 58.5 27.4714 58.5857 27.5571 58.6286C27.6428 58.6714 27.7714 58.7143 27.8571 58.7143C28.1142 58.7143 28.3285 58.5857 28.5428 58.2857V57.9429H28.0714V57.6857H28.7142V58.9714H28.4999V58.5429Z" fill="#9D9DA0"/>
<path d="M30.7285 58.5857V58.8857H29.1857V56.3143H30.7285V56.6143H29.5285V57.4286H30.6V57.7286H29.5285V58.5857H30.7285Z" fill="#9D9DA0"/>
<path d="M33.0857 58.8857V56.9143L32.3571 58.4571H32.1857L31.4571 56.9143V58.8857H31.1571V56.3143H31.4571L32.2714 57.9857L33.0857 56.3143H33.3857V58.8857H33.0857Z" fill="#9D9DA0"/>
<path d="M35.4428 58.5857V58.8857H33.8999V56.3143H35.4428V56.6143H34.2428V57.4286H35.3142V57.7286H34.2428V58.5857H35.4428Z" fill="#9D9DA0"/>
<path d="M36.1285 56.9143V58.8857H35.8285V56.3143H36.0428L37.4571 58.3286V56.3143H37.7571V58.8857H37.5428L36.1285 56.9143Z" fill="#9D9DA0"/>
<path d="M39.9428 56.6143H39.1714V58.9286H38.8714V56.6143H38.1V56.3143H39.9428V56.6143Z" fill="#9D9DA0"/>
<path d="M42.3856 56.8286C42.3428 56.7857 42.3428 56.7429 42.2999 56.7429C42.2571 56.7 42.2142 56.7 42.1285 56.6571C42.0856 56.6143 42.0428 56.6143 41.9571 56.6143C41.9142 56.5714 41.8285 56.5714 41.7428 56.5714C41.5714 56.5714 41.4428 56.6143 41.3571 56.6571C41.2714 56.7429 41.2285 56.8286 41.2285 56.9571C41.2285 57.0429 41.2285 57.0857 41.2714 57.1286C41.3142 57.1714 41.3142 57.2143 41.3571 57.2571C41.3999 57.3 41.4428 57.3 41.5285 57.3429C41.6142 57.3857 41.6999 57.3857 41.7856 57.4286C41.9142 57.4714 41.9999 57.4714 42.0856 57.5143C42.1714 57.5571 42.2571 57.6 42.2999 57.6429C42.3856 57.6857 42.4285 57.7714 42.4714 57.8571C42.5142 57.9429 42.5142 58.0286 42.5142 58.1571C42.5142 58.2857 42.4714 58.3714 42.4714 58.4571C42.4285 58.5429 42.3856 58.6286 42.2999 58.6714C42.2142 58.7143 42.1285 58.7571 42.0428 58.8C41.9571 58.8429 41.8285 58.8429 41.6999 58.8429C41.5285 58.8429 41.3571 58.8 41.2285 58.7571C41.0571 58.7143 40.9285 58.5857 40.7999 58.5L40.9285 58.2C40.9714 58.2429 41.0142 58.2857 41.0571 58.3286C41.0999 58.3714 41.1428 58.4143 41.2285 58.4143C41.3142 58.4143 41.3999 58.4571 41.4428 58.5C41.5285 58.5429 41.6142 58.5429 41.6999 58.5429C41.8714 58.5429 41.9999 58.5 42.0856 58.4571C42.1714 58.3714 42.2142 58.2857 42.2142 58.1571C42.2142 58.0714 42.1714 58.0286 42.1714 57.9857C42.1285 57.9429 42.0856 57.9 42.0428 57.8571C41.9999 57.8143 41.9142 57.7714 41.8285 57.7714C41.7428 57.7286 41.6571 57.7286 41.5285 57.6857C41.4428 57.6429 41.3142 57.6 41.2285 57.6C41.1428 57.5571 41.0571 57.5143 41.0142 57.4714C40.9714 57.4286 40.9285 57.3857 40.8856 57.3C40.8428 57.2143 40.8428 57.1286 40.8428 57.0429C40.8428 56.9143 40.8856 56.8286 40.8856 56.7C40.9285 56.6143 40.9714 56.5286 41.0571 56.4857C41.1428 56.4 41.2285 56.4 41.3142 56.3143C41.3999 56.2714 41.5285 56.2714 41.6571 56.2714C41.8285 56.2714 41.9571 56.3143 42.0856 56.3571C42.2142 56.4 42.2999 56.4857 42.4285 56.5714L42.3856 56.8286Z" fill="#9D9DA0"/>
<path d="M42.9857 58.8857V56.3143H43.9286C44.0143 56.3143 44.1 56.3571 44.2286 56.4C44.3143 56.4429 44.4 56.4857 44.4429 56.5714C44.4857 56.6571 44.5286 56.7429 44.5714 56.8286C44.6143 56.9143 44.6143 57.0429 44.6143 57.1286C44.6143 57.2143 44.5714 57.3429 44.5714 57.4286C44.5286 57.5143 44.4857 57.6 44.4429 57.6857C44.4 57.7714 44.3143 57.8143 44.2286 57.8571C44.1429 57.9 44.0571 57.9429 43.9286 57.9429H43.2857V58.8857H42.9857ZM43.2857 57.6429H43.9714C44.0143 57.6429 44.0571 57.6 44.1429 57.6C44.1857 57.5571 44.2286 57.5143 44.2714 57.4714C44.3143 57.4286 44.3143 57.3857 44.3571 57.3C44.4 57.2143 44.4 57.1714 44.4 57.0857C44.4 57 44.4 56.9143 44.3571 56.8714C44.3143 56.7857 44.3143 56.7429 44.2714 56.7C44.2286 56.6571 44.1857 56.6143 44.1429 56.6143C44.1 56.5714 44.0571 56.5714 43.9714 56.5714H43.3286L43.2857 57.6429Z" fill="#9D9DA0"/>
<path d="M46.5429 58.5857V58.8857H45V56.3143H46.5429V56.6143H45.3429V57.4286H46.4143V57.7286H45.3429V58.5857H46.5429Z" fill="#9D9DA0"/>
<path d="M46.7571 57.6C46.7571 57.4286 46.7999 57.3 46.8428 57.1286C46.8857 56.9571 46.9714 56.8286 47.0571 56.7C47.1428 56.5714 47.2714 56.4857 47.3999 56.4C47.5285 56.3143 47.6999 56.3143 47.8714 56.3143C48.0857 56.3143 48.2571 56.3571 48.3857 56.4857C48.5571 56.5714 48.6428 56.7 48.6857 56.9143L48.4714 57.0857C48.4285 57 48.3857 56.9143 48.3428 56.8714C48.2999 56.8286 48.2571 56.7857 48.1714 56.7429C48.0857 56.7 48.0857 56.7 47.9999 56.6571C47.9571 56.6143 47.8714 56.6143 47.8285 56.6143C47.6999 56.6143 47.6142 56.6571 47.4857 56.7C47.3999 56.7429 47.3142 56.8286 47.2714 56.9143C47.1857 57 47.1857 57.1286 47.0999 57.2143C47.0571 57.3429 47.0571 57.4286 47.0571 57.5571C47.0571 57.6857 47.0999 57.8143 47.0999 57.9429C47.1428 58.0714 47.1857 58.1571 47.2714 58.2857C47.3571 58.3714 47.4428 58.4571 47.5285 58.5C47.6142 58.5429 47.7428 58.5857 47.8285 58.5857C47.8714 58.5857 47.9571 58.5857 47.9999 58.5429C48.0428 58.5 48.1285 58.5 48.1714 58.4571C48.2142 58.4143 48.2571 58.3714 48.3428 58.2857C48.3857 58.2429 48.4285 58.1571 48.4714 58.0714L48.6857 58.2429C48.6428 58.3286 48.5999 58.4143 48.5142 58.5C48.4714 58.5857 48.3857 58.6286 48.2999 58.6714C48.2142 58.7143 48.1285 58.7571 48.0428 58.8C47.9571 58.8429 47.8714 58.8429 47.7857 58.8429C47.6142 58.8429 47.4857 58.8 47.3571 58.7143C47.2285 58.6286 47.1428 58.5429 47.0142 58.4143C46.9285 58.2857 46.8428 58.1571 46.7999 57.9857C46.7999 57.9 46.7571 57.7286 46.7571 57.6Z" fill="#9D9DA0"/>
<path d="M49.1143 58.8857V56.3143H49.4143V58.8857H49.1143Z" fill="#9D9DA0"/>
<path d="M50.6142 56.3143H50.8285L51.7714 58.8857H51.4714L51.2142 58.1571H50.2714L50.0142 58.8857H49.7142L50.6142 56.3143ZM51.1285 57.8571L50.6999 56.6571L50.2714 57.8571H51.1285Z" fill="#9D9DA0"/>
<path d="M52.0714 58.8857V56.3143H52.3714V58.6286H53.6571V58.9286H52.0714V58.8857Z" fill="#9D9DA0"/>
<path d="M53.957 58.8857V56.3143H54.257V58.8857H53.957Z" fill="#9D9DA0"/>
<path d="M56.1 56.8286C56.0571 56.7857 56.0571 56.7429 56.0143 56.7429C55.9714 56.7 55.9286 56.7 55.8429 56.6571C55.8 56.6143 55.7571 56.6143 55.6714 56.6143C55.6286 56.5714 55.5429 56.5714 55.4571 56.5714C55.2857 56.5714 55.1571 56.6143 55.0714 56.6571C54.9857 56.7429 54.9429 56.8286 54.9429 56.9571C54.9429 57.0429 54.9429 57.0857 54.9857 57.1286C55.0286 57.1714 55.0286 57.2143 55.0714 57.2571C55.1143 57.3 55.1571 57.3 55.2429 57.3429C55.3286 57.3857 55.4143 57.3857 55.5 57.4286C55.6286 57.4714 55.7143 57.4714 55.8 57.5143C55.8857 57.5571 55.9714 57.6 56.0143 57.6429C56.1 57.6857 56.1429 57.7714 56.1857 57.8571C56.2286 57.9429 56.2286 58.0286 56.2286 58.1571C56.2286 58.2857 56.1857 58.3714 56.1857 58.4571C56.1429 58.5429 56.1 58.6286 56.0143 58.6714C55.9286 58.7143 55.8429 58.7571 55.7571 58.8C55.6714 58.8429 55.5429 58.8429 55.4143 58.8429C55.2429 58.8429 55.0714 58.8 54.9429 58.7571C54.7714 58.7143 54.6429 58.5857 54.5143 58.5L54.6429 58.2C54.6857 58.2429 54.7286 58.2857 54.7714 58.3286C54.8143 58.3714 54.8571 58.4143 54.9429 58.4143C55.0286 58.4571 55.1143 58.4571 55.1571 58.5C55.2 58.5429 55.3286 58.5429 55.4143 58.5429C55.5857 58.5429 55.7143 58.5 55.8 58.4571C55.8857 58.3714 55.9286 58.2857 55.9286 58.1571C55.9286 58.0714 55.8857 58.0286 55.8857 57.9857C55.8429 57.9429 55.8 57.9 55.7571 57.8571C55.7143 57.8143 55.6286 57.7714 55.5429 57.7714C55.4571 57.7286 55.3714 57.7286 55.2429 57.6857C55.1571 57.6429 55.0286 57.6 54.9429 57.6C54.8571 57.5571 54.7714 57.5143 54.7286 57.4714C54.6857 57.4286 54.6429 57.3857 54.6 57.3C54.5571 57.2143 54.5571 57.1286 54.5571 57.0429C54.5571 56.9143 54.6 56.8286 54.6 56.7C54.6429 56.6143 54.6857 56.5286 54.7714 56.4857C54.8571 56.4 54.9429 56.4 55.0286 56.3143C55.1143 56.2714 55.2429 56.2714 55.3714 56.2714C55.5429 56.2714 55.6714 56.3143 55.8 56.3571C55.9286 56.4 56.0143 56.4857 56.1429 56.5714L56.1 56.8286Z" fill="#9D9DA0"/>
<path d="M58.3714 56.6143H57.6V58.9286H57.3V56.6143H56.5286V56.3143H58.3714V56.6143Z" fill="#9D9DA0"/>
<path d="M23.4429 26.7429L58.3715 26.3571V25.9286L23.3143 25.5429C23.4858 25.8857 23.5286 26.3143 23.4429 26.7429Z" fill="#9D9DA0"/>
<path d="M22.2001 22.5L58.3715 22.0714V21.6429L22.9715 21.2143C22.6715 21.5571 22.3715 21.9857 22.2001 22.5Z" fill="#9D9DA0"/>
<path d="M22.0286 23.4429C22.0714 23.7429 22.4143 24.1286 22.7571 24.6429L58.3714 24.2571V23.8286L22.0286 23.4C22.0286 23.4 22.0286 23.4 22.0286 23.4429Z" fill="#9D9DA0"/>
<path d="M22.8857 27.8571C22.5 28.3286 22.0286 28.6714 21.5143 28.9286L58.3714 28.5V28.0714L23.0143 27.6857C22.9714 27.7286 22.9286 27.8143 22.8857 27.8571Z" fill="#9D9DA0"/>
<path d="M13.8 33.2143L58.3715 32.7857V32.3571L13.8429 31.9286L13.8 33.2143Z" fill="#9D9DA0"/>
<path d="M13.8858 30.2143L13.8429 31.0714L58.3286 30.6429V30.2143L14.3143 29.7857C13.9715 30 13.8858 30.2143 13.8858 30.2143Z" fill="#9D9DA0"/>
<path d="M23.4857 19.8429C23.6143 20.0143 23.6571 20.1857 23.6143 20.3571L58.3714 19.9286V19.5L23.8714 19.0714C23.7 19.4571 23.4857 19.8429 23.4857 19.8429Z" fill="#9D9DA0"/>
<path d="M26.0572 13.1571C26.0572 13.3714 26.0572 13.6286 25.9715 13.9286L58.3286 13.5V13.0714L25.7572 12.6429C25.9715 12.9 26.0572 13.0714 26.0572 13.1571Z" fill="#9D9DA0"/>
<path d="M21.9857 5.35714L58.3714 4.92857V4.5L22.2429 4.07143C22.2 4.54286 22.1143 4.97143 21.9857 5.35714Z" fill="#9D9DA0"/>
<path d="M22.0286 1.92857C22.2857 2.27143 22.2857 2.65714 22.2857 3.21429L58.3714 2.78571V2.35714L22.0286 1.92857Z" fill="#9D9DA0"/>
<path d="M24.1715 18.1714L58.3715 17.7857V17.3571L23.7001 16.9286C23.8715 17.3143 24.1715 17.9143 24.1715 18.1714Z" fill="#9D9DA0"/>
<path d="M21.6429 7.5L58.3715 7.07143V6.64286L21.7287 6.21429C21.6001 6.68572 21.5144 7.07143 21.6429 7.5Z" fill="#9D9DA0"/>
<path d="M24.8144 15.0429C24.0429 15.3429 23.7429 15.7286 23.6572 16.0714L58.3715 15.6429V15.2143L25.2429 14.8286C25.1144 14.8714 24.9858 14.9571 24.8144 15.0429Z" fill="#9D9DA0"/>
<path d="M23.2715 9.64286L58.3715 9.21429V8.78571L22.2429 8.35714C22.4572 8.65714 22.8429 9.12857 23.2715 9.64286Z" fill="#9D9DA0"/>
<path d="M25.0714 11.7429L58.3714 11.3571V10.9286L24 10.5C24.3857 10.9286 24.7714 11.3571 25.0714 11.7429Z" fill="#9D9DA0"/>
</svg>
