<svg width="30" height="30" viewBox="0 0 30 30" fill="none" xmlns="http://www.w3.org/2000/svg">
<path d="M5.1645 24.4038C6.68944 23.349 8.2411 22.5194 9.81946 21.9151C11.3978 21.3107 13.1246 21.0085 15 21.0085C16.8754 21.0085 18.6033 21.3107 20.1838 21.9151C21.7642 22.5194 23.317 23.349 24.8419 24.4038C26.0093 23.1524 26.9258 21.7369 27.5914 20.1573C28.257 18.5778 28.5898 16.8587 28.5898 15C28.5898 11.2115 27.2719 7.99946 24.6362 5.36379C22.0005 2.7281 18.7885 1.41025 15 1.41025C11.2115 1.41025 7.99946 2.7281 5.36379 5.36379C2.7281 7.99946 1.41025 11.2115 1.41025 15C1.41025 16.8587 1.74411 18.5778 2.41183 20.1573C3.07958 21.7369 3.99714 23.1524 5.1645 24.4038ZM14.9935 15.7051C13.5982 15.7051 12.424 15.2263 11.4706 14.2685C10.5173 13.3108 10.0406 12.1344 10.0406 10.7392C10.0406 9.34397 10.5194 8.1697 11.4772 7.21633C12.4349 6.263 13.6113 5.78633 15.0065 5.78633C16.4018 5.78633 17.576 6.26519 18.5294 7.22292C19.4827 8.18064 19.9594 9.3571 19.9594 10.7523C19.9594 12.1475 19.4806 13.3218 18.5228 14.2751C17.5651 15.2285 16.3887 15.7051 14.9935 15.7051ZM15.013 30C12.9167 30 10.9582 29.6106 9.13754 28.8318C7.31685 28.0529 5.72817 26.9836 4.3715 25.624C3.01486 24.2643 1.94711 22.6778 1.16825 20.8644C0.389417 19.0511 0 17.0974 0 15.0033C0 12.9092 0.389417 10.9544 1.16825 9.13888C1.94711 7.32335 3.01637 5.73575 4.37604 4.37608C5.73574 3.01639 7.32225 1.94711 9.13558 1.16825C10.9489 0.389418 12.9026 0 14.9967 0C17.0908 0 19.0456 0.389418 20.8611 1.16825C22.6767 1.94711 24.2642 3.01639 25.6239 4.37608C26.9836 5.73575 28.0529 7.32365 28.8317 9.13979C29.6106 10.9559 30 12.905 30 14.987C30 17.0833 29.6106 19.0418 28.8317 20.8625C28.0529 22.6832 26.9836 24.2718 25.6239 25.6285C24.2642 26.9851 22.6763 28.0529 20.8602 28.8318C19.0441 29.6106 17.095 30 15.013 30ZM15 28.5898C16.5591 28.5898 18.1047 28.32 19.6367 27.7805C21.1688 27.2409 22.5306 26.4523 23.7222 25.4145C22.5306 24.4865 21.1962 23.7552 19.719 23.2206C18.2418 22.6861 16.6688 22.4188 15 22.4188C13.3312 22.4188 11.7528 22.6807 10.265 23.2046C8.77707 23.7284 7.45512 24.4651 6.29912 25.4145C7.47649 26.4523 8.83119 27.2409 10.3632 27.7805C11.8953 28.32 13.4409 28.5898 15 28.5898ZM15.003 14.2949C16.0138 14.2949 16.8576 13.9556 17.5342 13.2769C18.2108 12.5983 18.5492 11.7536 18.5492 10.7428C18.5492 9.73192 18.2098 8.88818 17.5312 8.21154C16.8526 7.5349 16.0078 7.19658 14.997 7.19658C13.9862 7.19658 13.1424 7.53589 12.4658 8.2145C11.7892 8.89314 11.4508 9.73787 11.4508 10.7487C11.4508 11.7595 11.7902 12.6033 12.4688 13.2799C13.1474 13.9566 13.9922 14.2949 15.003 14.2949Z" fill="#323232"/>
</svg>
