<svg width="60" height="60" viewBox="0 0 60 60" fill="none" xmlns="http://www.w3.org/2000/svg">
<path d="M20.6154 45.3H18.7725V40.2857C18.7725 38.8714 18.344 38.2286 17.6583 38.2286C16.9297 38.2286 16.2011 39 15.944 40.1143V45.3429H14.1011V40.3286C14.1011 38.8714 13.6725 38.2714 12.9868 38.2714C12.2583 38.2714 11.5297 39 11.2725 40.1143V45.3429H9.42969V36.3857H11.1011V38.0571C11.6583 36.9 12.6011 36.2571 13.8011 36.2571C15.0011 36.2571 15.644 37.0714 15.8583 38.1429C16.4583 36.9 17.4011 36.2571 18.5583 36.2571C20.3583 36.2571 20.744 38.0571 20.744 39.7714C20.6154 39.7286 20.6154 45.3 20.6154 45.3Z" fill="#636363"/>
<path d="M21.5996 44.3143L22.3282 42.7714C23.2282 43.5 24.1282 43.8857 25.0282 43.8857C25.7996 43.8857 26.271 43.5429 26.271 42.9C26.271 42.3 25.7996 42.0429 24.5568 41.7C22.6282 41.1429 21.9853 40.5857 21.9853 39.2143C21.9853 37.3714 23.271 36.2571 24.8996 36.2571C25.9282 36.2571 26.9996 36.6857 27.8568 37.3714L27.1282 38.7857C26.3139 38.1857 25.5853 37.8857 24.8996 37.8857C24.2139 37.8857 23.6996 38.1857 23.6996 38.8714C23.6996 39.4714 24.0425 39.6429 25.1568 39.9857C27.2139 40.5857 28.0282 41.1857 28.0282 42.6857C28.0282 44.4 26.8282 45.5143 25.0282 45.5143C23.871 45.4714 22.4568 45 21.5996 44.3143Z" fill="#636363"/>
<path d="M1.67188 44.3143L2.40045 42.7714C3.30045 43.5 4.20045 43.8857 5.10045 43.8857C5.87187 43.8857 6.3433 43.5429 6.3433 42.9C6.3433 42.3 5.87188 42.0429 4.62902 41.7C2.70045 41.1429 2.05759 40.5857 2.05759 39.2143C2.05759 37.3714 3.3433 36.2571 4.97188 36.2571C6.00045 36.2571 7.07188 36.6857 7.92902 37.3714L7.15759 38.7857C6.3433 38.1857 5.61473 37.8857 4.92902 37.8857C4.2433 37.8857 3.72902 38.1857 3.72902 38.8714C3.72902 39.4714 4.07188 39.6429 5.18616 39.9857C7.2433 40.5857 8.05759 41.1857 8.05759 42.6857C8.05759 44.4 6.85759 45.5143 5.05759 45.5143C3.9433 45.4714 2.52902 45 1.67188 44.3143Z" fill="#636363"/>
<path d="M10.842 53.7C10.4134 53.7 10.0277 53.6143 9.64196 53.4857C9.25625 53.3571 8.91339 53.1429 8.65625 52.8857L9.12768 52.0714C9.42768 52.2857 9.72768 52.4571 9.98482 52.5429C10.2848 52.6286 10.542 52.7143 10.7991 52.7143C11.0563 52.7143 11.2277 52.6714 11.3991 52.5429C11.5277 52.4571 11.6134 52.3286 11.6134 52.1143C11.6134 51.9429 11.5277 51.8143 11.3562 51.7286C11.1848 51.6429 10.9277 51.5571 10.542 51.4286C10.242 51.3429 9.98482 51.2571 9.72768 51.1714C9.51339 51.0857 9.34196 51 9.17054 50.8714C9.04196 50.7857 8.95625 50.6571 8.87054 50.5286C8.82768 50.4 8.78482 50.2286 8.78482 50.0571C8.78482 49.8 8.82768 49.5857 8.95625 49.3714C9.04196 49.1571 9.17054 48.9857 9.38482 48.8143C9.55625 48.6429 9.72768 48.5571 9.98482 48.4714C10.1991 48.3857 10.4562 48.3429 10.7134 48.3429C11.0562 48.3429 11.3991 48.3857 11.6991 48.5143C11.9991 48.6 12.2991 48.8143 12.5562 49.0714L12.0848 49.8857C11.8277 49.6714 11.6134 49.5429 11.3562 49.4571C11.142 49.3714 10.8848 49.3286 10.6705 49.3286C10.4562 49.3286 10.2848 49.3714 10.1563 49.4571C10.0277 49.5429 9.94196 49.6714 9.94196 49.8857C9.94196 49.9714 9.98482 50.0571 9.98482 50.1C10.0277 50.1429 10.0705 50.1857 10.1563 50.2714C10.242 50.3143 10.3277 50.3571 10.4562 50.4C10.5848 50.4429 10.7134 50.4857 10.8848 50.5286C11.2277 50.6143 11.4848 50.7 11.742 50.8286C11.9562 50.9143 12.1705 51.0429 12.2991 51.1286C12.4705 51.2571 12.5563 51.3857 12.642 51.5571C12.7277 51.7286 12.7277 51.9 12.7277 52.1143C12.7277 52.5857 12.5563 53.0143 12.2134 53.3143C11.8705 53.5714 11.3991 53.7 10.842 53.7Z" fill="#9D9DA0"/>
<path d="M14.8711 53.7C14.3997 53.7 14.0139 53.5286 13.7568 53.1857C13.4997 52.8429 13.3711 52.3286 13.3711 51.6857V48.4714H14.5711V51.3857C14.5711 52.1571 14.8282 52.5857 15.3854 52.5857C15.5997 52.5857 15.8568 52.5 16.0711 52.3714C16.2854 52.2 16.4997 51.9857 16.6282 51.6857V48.5143H17.8711V52.1143C17.8711 52.2429 17.914 52.3286 17.9568 52.4143C17.9997 52.4571 18.0854 52.5 18.1711 52.5V53.6143C18.0425 53.6571 17.9568 53.6571 17.8711 53.6571C17.7854 53.6571 17.6997 53.6571 17.6568 53.6571C17.4425 53.6571 17.2282 53.6143 17.0997 53.4857C16.9711 53.4 16.8854 53.2286 16.8854 53.0571L16.8425 52.6286C16.6282 52.9714 16.3711 53.2286 16.0282 53.4429C15.6425 53.6571 15.2568 53.7 14.8711 53.7Z" fill="#9D9DA0"/>
<path d="M20.8709 53.7C20.5281 53.7 20.2281 53.6143 19.9281 53.4857C19.6281 53.3571 19.4138 53.1429 19.1995 52.9286C18.9852 52.7143 18.8566 52.4143 18.7281 52.0714C18.6424 51.7714 18.5566 51.3857 18.5566 51.0429C18.5566 50.7 18.5995 50.3143 18.7281 50.0143C18.8566 49.7143 18.9852 49.4143 19.1566 49.1571C19.3281 48.9429 19.5852 48.7286 19.8424 48.6C20.0995 48.4714 20.3995 48.3857 20.6995 48.3857C21.0424 48.3857 21.3852 48.4714 21.6424 48.6857C21.9424 48.8571 22.1566 49.1143 22.3281 49.4143V46.5H23.5709V52.1143C23.5709 52.2429 23.6138 52.3286 23.6138 52.4143C23.6566 52.4571 23.7424 52.5 23.8281 52.5V53.6143C23.6138 53.6571 23.4424 53.7 23.3138 53.7C23.0995 53.7 22.8852 53.6571 22.7566 53.5286C22.6281 53.4 22.5424 53.2714 22.5424 53.0571L22.4995 52.7571C22.3281 53.1 22.0709 53.3143 21.7709 53.4857C21.5138 53.6571 21.2138 53.7 20.8709 53.7ZM21.2138 52.5857C21.3424 52.5857 21.4281 52.5429 21.5566 52.5429C21.6852 52.5 21.7709 52.4571 21.8995 52.3714C22.0281 52.2857 22.1138 52.2 22.1995 52.0714C22.2852 51.9857 22.3709 51.8571 22.3709 51.7286V50.5286C22.3281 50.3571 22.2424 50.2286 22.1566 50.1429C22.0709 50.0143 21.9852 49.9286 21.8566 49.8429C21.7709 49.7571 21.6424 49.6714 21.5138 49.6286C21.3852 49.5857 21.2566 49.5429 21.1709 49.5429C20.9995 49.5429 20.8281 49.5857 20.6566 49.6714C20.4852 49.7571 20.3566 49.8857 20.2709 50.0143C20.1852 50.1857 20.0566 50.3143 20.0138 50.4857C19.9709 50.6571 19.9281 50.8714 19.9281 51.0857C19.9281 51.3 19.9709 51.5143 20.0138 51.6857C20.0995 51.8571 20.1852 52.0286 20.3138 52.1571C20.3995 52.2857 20.5709 52.3714 20.7424 52.4571C20.8281 52.5857 20.9995 52.5857 21.2138 52.5857Z" fill="#9D9DA0"/>
<path d="M25.9274 53.7C25.7131 53.7 25.4988 53.6571 25.2845 53.5714C25.0703 53.4857 24.8988 53.3571 24.7703 53.2286C24.5988 53.0571 24.5131 52.9286 24.4274 52.7143C24.3417 52.5 24.2988 52.2857 24.2988 52.0714C24.2988 51.8571 24.3417 51.6 24.4703 51.3857C24.556 51.1714 24.6845 51 24.8988 50.8714C25.0703 50.7 25.2845 50.6143 25.5417 50.5286C25.7988 50.4429 26.056 50.4 26.356 50.4C26.5703 50.4 26.7845 50.4429 26.956 50.4429C27.1703 50.4857 27.3417 50.5286 27.5131 50.6143V50.3143C27.5131 49.9714 27.4274 49.7143 27.256 49.5429C27.0845 49.3714 26.8274 49.2429 26.4417 49.2429C26.1845 49.2429 25.9274 49.2857 25.7131 49.4143C25.456 49.5 25.2417 49.6286 24.9845 49.8429L24.5988 49.0286C25.1988 48.6 25.8845 48.3857 26.6131 48.3857C27.2988 48.3857 27.856 48.5571 28.2417 48.9429C28.6274 49.3286 28.7988 49.8 28.7988 50.5286V52.1143C28.7988 52.2429 28.8417 52.3286 28.8845 52.4143C28.9274 52.4571 29.0131 52.5 29.0988 52.5V53.6143C28.8845 53.6571 28.7131 53.7 28.5417 53.7C28.3274 53.7 28.1131 53.6571 27.9845 53.5286C27.856 53.4429 27.7703 53.2714 27.7703 53.1L27.7274 52.8C27.5131 53.1 27.256 53.3143 26.956 53.4857C26.656 53.6571 26.3131 53.7 25.9274 53.7ZM26.3131 52.7571C26.5274 52.7571 26.7417 52.7143 26.9131 52.6286C27.0845 52.5429 27.256 52.4571 27.3417 52.3286C27.4703 52.2429 27.556 52.1143 27.556 51.9857V51.3857C27.3845 51.3429 27.256 51.3 27.0845 51.2571C26.9131 51.2143 26.7417 51.2143 26.6131 51.2143C26.3131 51.2143 26.056 51.3 25.8417 51.4286C25.6274 51.5571 25.5417 51.7714 25.5417 51.9857C25.5417 52.2 25.6274 52.4143 25.756 52.5429C25.8845 52.6714 26.056 52.7571 26.3131 52.7571Z" fill="#9D9DA0"/>
<path d="M37.242 53.6571H35.9991V50.7857C35.9991 50.3571 35.9134 50.1 35.7848 49.8857C35.6563 49.7143 35.4848 49.5857 35.2277 49.5857C34.9705 49.5857 34.7563 49.6714 34.542 49.8857C34.3277 50.1 34.1991 50.3571 34.0705 50.6571V53.6143H32.8277V50.7429C32.8277 50.3143 32.742 50.0571 32.6134 49.8429C32.4848 49.6714 32.3134 49.5429 32.0563 49.5429C31.7991 49.5429 31.5848 49.6286 31.3705 49.8429C31.1562 50.0571 31.0277 50.3143 30.8991 50.6143V53.6143H29.6562V48.4714H30.7705V49.4143C30.942 49.0714 31.1991 48.8143 31.4991 48.6429C31.7991 48.4714 32.1848 48.3857 32.5705 48.3857C32.9991 48.3857 33.2991 48.4714 33.5134 48.6857C33.7277 48.9 33.8562 49.1571 33.942 49.4571C34.1562 49.1143 34.3705 48.8571 34.6705 48.6429C34.9705 48.4714 35.3134 48.3429 35.6991 48.3429C35.9991 48.3429 36.2563 48.3857 36.4277 48.5143C36.5991 48.6429 36.7705 48.7714 36.8563 48.9857C36.942 49.1571 37.0277 49.4143 37.0705 49.6286C37.1134 49.8429 37.1134 50.1 37.1134 50.3571V53.5714H37.242V53.6571Z" fill="#9D9DA0"/>
<path d="M40.3273 53.7C39.9416 53.7 39.5987 53.6143 39.2559 53.4857C38.9559 53.3571 38.6987 53.1429 38.4416 52.9286C38.2273 52.7143 38.0559 52.4143 37.9273 52.1143C37.7987 51.8143 37.7559 51.4714 37.7559 51.1286C37.7559 50.7857 37.7987 50.4429 37.9273 50.1C38.0559 49.8 38.2273 49.5 38.4416 49.2429C38.6559 49.0286 38.913 48.8143 39.2559 48.6857C39.5559 48.5143 39.9416 48.4714 40.3273 48.4714C40.713 48.4714 41.0559 48.5571 41.3987 48.6857C41.6987 48.8571 41.9559 49.0286 42.213 49.2429C42.4273 49.4571 42.5987 49.7571 42.6844 50.0571C42.7701 50.3571 42.8559 50.7 42.8559 51.0429C42.8559 51.1286 42.8559 51.2143 42.8559 51.2571C42.8559 51.3429 42.8559 51.4286 42.813 51.4714H39.0844C39.1273 51.6857 39.1701 51.8571 39.213 52.0286C39.2987 52.2 39.3844 52.3286 39.513 52.4571C39.6416 52.5429 39.7701 52.6714 39.8987 52.7143C40.0701 52.7571 40.1987 52.8 40.3701 52.8C40.6273 52.8 40.8416 52.7571 41.0559 52.6286C41.2701 52.5 41.3987 52.3286 41.4844 52.1571L42.5559 52.4571C42.3844 52.8429 42.0844 53.1857 41.6987 53.4C41.3559 53.5714 40.8844 53.7 40.3273 53.7ZM41.613 50.6571C41.5701 50.2714 41.4416 49.9714 41.1844 49.7143C40.9701 49.5 40.6701 49.3714 40.3273 49.3714C40.1559 49.3714 40.0273 49.4143 39.8559 49.4571C39.6844 49.5 39.5559 49.6286 39.4701 49.7143C39.3844 49.8 39.2559 49.9286 39.213 50.1C39.1273 50.2714 39.1273 50.4429 39.0844 50.6143L41.613 50.6571ZM40.6701 47.9143L39.8559 47.6571L40.3273 46.5H41.4844L40.6701 47.9143Z" fill="#9D9DA0"/>
<path d="M46.3285 49.6286C45.9856 49.6286 45.6427 49.7143 45.3427 49.8429C45.0427 50.0143 44.8285 50.1857 44.6999 50.5286V53.6143H43.457V48.4714H44.5713V49.5429C44.657 49.3714 44.7427 49.2 44.8713 49.0714C44.9999 48.9429 45.0856 48.8143 45.257 48.7286C45.3856 48.6429 45.557 48.5571 45.6856 48.5143C45.8142 48.4714 45.9856 48.4286 46.1142 48.4286C46.1999 48.4286 46.2427 48.4286 46.2856 48.4286C46.3285 48.4286 46.3713 48.4286 46.3713 48.4286L46.3285 49.6286Z" fill="#9D9DA0"/>
<path d="M46.8418 47.7857V46.5H48.0847V47.7857H46.8418ZM46.8418 53.6571V48.5143H48.0847V53.6143L46.8418 53.6571Z" fill="#9D9DA0"/>
<path d="M48.6855 51.0429C48.6855 50.7 48.7284 50.3571 48.857 50.0571C48.9855 49.7571 49.157 49.4571 49.3713 49.2429C49.5855 49.0286 49.8427 48.8143 50.1855 48.6857C50.4855 48.5143 50.8713 48.4714 51.257 48.4714C51.7713 48.4714 52.2427 48.6 52.5855 48.8143C52.9284 49.0286 53.2284 49.3714 53.3998 49.7571L52.1998 50.1429C52.1141 49.9714 51.9855 49.8 51.7713 49.7143C51.5998 49.6286 51.4284 49.5429 51.2141 49.5429C51.0427 49.5429 50.8713 49.5857 50.7427 49.6286C50.5713 49.7143 50.4427 49.8 50.3141 49.9286C50.2284 50.0571 50.0998 50.2286 50.057 50.4C49.9713 50.5714 49.9713 50.7857 49.9713 51C49.9713 51.2143 50.0141 51.4286 50.057 51.6C50.1427 51.7714 50.2284 51.9429 50.357 52.0714C50.4427 52.2 50.6141 52.2857 50.7855 52.3714C50.957 52.4571 51.0855 52.4571 51.257 52.4571C51.4713 52.4571 51.6855 52.4143 51.857 52.2857C52.0284 52.1571 52.157 52.0286 52.2427 51.8571L53.4427 52.2429C53.2713 52.6286 53.0141 52.9286 52.6284 53.1857C52.2427 53.4429 51.8141 53.5286 51.257 53.5286C50.8713 53.5286 50.5284 53.4429 50.1855 53.3143C49.8855 53.1429 49.6284 52.9714 49.3713 52.7143C49.157 52.5 48.9855 52.2 48.857 51.8571C48.7284 51.7714 48.6855 51.4286 48.6855 51.0429Z" fill="#9D9DA0"/>
<path d="M55.3278 53.7C55.1135 53.7 54.8992 53.6571 54.6849 53.5714C54.4706 53.4857 54.2992 53.3571 54.1706 53.2286C53.9992 53.0571 53.9135 52.9286 53.8278 52.7143C53.7421 52.5 53.6992 52.2857 53.6992 52.0714C53.6992 51.8571 53.7421 51.6 53.8706 51.3857C53.9564 51.1714 54.0849 51 54.2992 50.8714C54.4706 50.7 54.6849 50.6143 54.9421 50.5286C55.1992 50.4429 55.4564 50.4 55.7564 50.4C55.9706 50.4 56.1849 50.4429 56.3564 50.4429C56.5706 50.4857 56.7421 50.5286 56.9135 50.6143V50.3143C56.9135 49.9714 56.8278 49.7143 56.6135 49.5429C56.4421 49.3714 56.1849 49.2429 55.7992 49.2429C55.5421 49.2429 55.2849 49.2857 55.0706 49.4143C54.8564 49.5 54.5992 49.6286 54.3421 49.8429L53.9564 49.0286C54.5564 48.6 55.2421 48.3857 55.9706 48.3857C56.6564 48.3857 57.2135 48.5571 57.5992 48.9429C57.9849 49.2857 58.1564 49.8 58.1564 50.5286V52.1143C58.1564 52.2429 58.1992 52.3286 58.2421 52.4143C58.2849 52.4571 58.3706 52.5 58.4564 52.5V53.6143C58.2421 53.6571 58.0706 53.7 57.8992 53.7C57.6849 53.7 57.4706 53.6571 57.3421 53.5286C57.2135 53.4429 57.1278 53.2714 57.1278 53.1L57.0849 52.8C56.8706 53.1 56.6135 53.3143 56.3135 53.4857C55.9706 53.6571 55.6706 53.7 55.3278 53.7ZM55.6706 52.7571C55.8849 52.7571 56.0992 52.7143 56.2706 52.6286C56.4421 52.5429 56.6135 52.4571 56.6992 52.3286C56.8278 52.2429 56.9135 52.1143 56.9135 51.9857V51.3857C56.7421 51.3429 56.6135 51.3 56.4421 51.2571C56.2706 51.2143 56.0992 51.2143 55.9706 51.2143C55.6706 51.2143 55.4135 51.3 55.1992 51.4286C54.9849 51.6 54.8992 51.7714 54.8992 51.9857C54.8992 52.2 54.9849 52.4143 55.1135 52.5429C55.2421 52.6714 55.4135 52.7571 55.6706 52.7571Z" fill="#9D9DA0"/>
<path d="M7.37221 1.92857H1.80078V33.2143H7.37221V1.92857Z" fill="#636363"/>
<path d="M7.37221 48.2143H1.80078V53.7857H7.37221V48.2143Z" fill="#636363"/>
<path d="M3.30056 56.8286C3.2577 56.7857 3.2577 56.7429 3.21484 56.7429C3.17199 56.7 3.12913 56.7 3.04342 56.6571C3.00056 56.6143 2.9577 56.6143 2.87199 56.6143C2.78627 56.5714 2.70056 56.5714 2.6577 56.5714C2.48627 56.5714 2.3577 56.6143 2.27199 56.6571C2.18627 56.7429 2.14342 56.8714 2.14342 57C2.14342 57.0857 2.14342 57.1286 2.18627 57.1714C2.22913 57.2143 2.22913 57.2571 2.27199 57.3C2.31484 57.3429 2.3577 57.3429 2.44342 57.3857C2.52913 57.4286 2.61484 57.4286 2.70056 57.4714C2.82913 57.5143 2.91484 57.5143 3.00056 57.5571C3.08627 57.6 3.17199 57.6429 3.21484 57.6857C3.30056 57.7286 3.34342 57.8143 3.38627 57.9C3.42913 57.9857 3.42913 58.0714 3.42913 58.2C3.42913 58.3286 3.38627 58.4143 3.38627 58.5C3.34342 58.5857 3.30056 58.6714 3.21484 58.7143C3.12913 58.7571 3.04342 58.8 2.9577 58.8429C2.87199 58.8857 2.74342 58.8857 2.61484 58.8857C2.44342 58.8857 2.27199 58.8429 2.14342 58.8C1.97199 58.7571 1.84342 58.6286 1.71484 58.5429L1.84342 58.2429C1.88627 58.2857 1.92913 58.3286 1.97199 58.3714C2.01484 58.4143 2.0577 58.4571 2.14342 58.4571C2.22913 58.5 2.31484 58.5 2.3577 58.5429C2.44342 58.5857 2.52913 58.5857 2.61484 58.5857C2.78627 58.5857 2.91484 58.5429 3.00056 58.5C3.08627 58.4143 3.12913 58.3286 3.12913 58.2C3.12913 58.1143 3.08627 58.0714 3.08627 58.0286C3.04342 57.9857 3.00056 57.9429 2.9577 57.9C2.91484 57.8571 2.82913 57.8143 2.74342 57.8143C2.6577 57.7714 2.57199 57.7714 2.44342 57.7286C2.3577 57.6857 2.22913 57.6429 2.14342 57.6429C2.0577 57.6 1.97199 57.5571 1.92913 57.5143C1.88627 57.4714 1.84342 57.4286 1.80056 57.3429C1.7577 57.2571 1.7577 57.1714 1.7577 57.0857C1.7577 56.9571 1.80056 56.8714 1.80056 56.7429C1.84342 56.6571 1.88627 56.5714 1.97199 56.5286C2.0577 56.4429 2.14342 56.4429 2.22913 56.3571C2.31484 56.3143 2.44342 56.3143 2.57199 56.3143C2.74342 56.3143 2.87199 56.3571 3.00056 56.4C3.12913 56.4429 3.21484 56.5286 3.34342 56.6143L3.30056 56.8286Z" fill="#9D9DA0"/>
<path d="M3.98544 56.3143L4.67115 57.6429L5.35686 56.3143H5.65686L4.79972 57.9429V58.8857H4.49972V57.9429L3.64258 56.3143H3.98544Z" fill="#9D9DA0"/>
<path d="M7.32986 56.8286C7.287 56.7857 7.287 56.7429 7.24414 56.7429C7.20128 56.7 7.15843 56.7 7.07271 56.6571C7.02986 56.6143 6.987 56.6143 6.90128 56.6143C6.85843 56.5714 6.77271 56.5714 6.687 56.5714C6.51557 56.5714 6.387 56.6143 6.30128 56.6571C6.21557 56.7429 6.17271 56.8286 6.17271 56.9571C6.17271 57.0429 6.17271 57.0857 6.21557 57.1286C6.25843 57.1714 6.25843 57.2143 6.30128 57.2571C6.34414 57.3 6.387 57.3 6.47271 57.3429C6.55843 57.3857 6.64414 57.3857 6.72986 57.4286C6.85843 57.4714 6.94414 57.4714 7.02985 57.5143C7.11557 57.5571 7.20128 57.6 7.24414 57.6429C7.32985 57.6857 7.37271 57.7714 7.41557 57.8571C7.45843 57.9429 7.45843 58.0286 7.45843 58.1571C7.45843 58.2857 7.41557 58.3714 7.41557 58.4571C7.37271 58.5429 7.32985 58.6286 7.24414 58.6714C7.15843 58.7143 7.07271 58.7571 6.987 58.8C6.90128 58.8429 6.77271 58.8429 6.64414 58.8429C6.47271 58.8429 6.30128 58.8 6.17271 58.7571C6.00128 58.7143 5.87271 58.5857 5.74414 58.5L5.87271 58.2C5.91557 58.2429 5.95843 58.2857 6.00128 58.3286C6.04414 58.3714 6.12985 58.4143 6.17271 58.4143C6.25843 58.4571 6.34414 58.4571 6.387 58.5C6.42985 58.5429 6.55843 58.5429 6.64414 58.5429C6.81557 58.5429 6.94414 58.5 7.02985 58.4571C7.11557 58.3714 7.15843 58.2857 7.15843 58.1571C7.15843 58.0714 7.11557 58.0286 7.11557 57.9857C7.07271 57.9429 7.02985 57.9 6.987 57.8571C6.94414 57.8143 6.85843 57.7714 6.77271 57.7714C6.687 57.7286 6.60128 57.7286 6.47271 57.6857C6.387 57.6429 6.25843 57.6 6.17271 57.6C6.087 57.5571 6.00128 57.5143 5.95843 57.4714C5.91557 57.4286 5.87271 57.3857 5.82986 57.3C5.787 57.2143 5.787 57.1286 5.787 57.0429C5.787 56.9143 5.82986 56.8286 5.82986 56.7C5.87271 56.6143 5.91557 56.5286 6.00128 56.4857C6.087 56.4 6.17271 56.4 6.25843 56.3143C6.34414 56.2714 6.47271 56.2714 6.60128 56.2714C6.77271 56.2714 6.90128 56.3143 7.02985 56.3571C7.15843 56.4 7.24414 56.4857 7.37271 56.5714L7.32986 56.8286Z" fill="#9D9DA0"/>
<path d="M9.5577 56.6143H8.78627V58.9286H8.48627V56.6143H7.71484V56.3143H9.5577V56.6143Z" fill="#9D9DA0"/>
<path d="M11.4003 58.5857V58.8857H9.85742V56.3143H11.4003V56.6143H10.2003V57.4286H11.2717V57.7286H10.2003V58.5857H11.4003Z" fill="#9D9DA0"/>
<path d="M13.7586 58.8857V56.9143L13.0301 58.4571H12.8586L12.1301 56.9143V58.8857H11.8301V56.3143H12.1301L12.9444 57.9857L13.7586 56.3143H14.0586V58.8857H13.7586Z" fill="#9D9DA0"/>
<path d="M15.9431 56.8286C15.9003 56.7857 15.9003 56.7429 15.8574 56.7429C15.8146 56.7 15.7717 56.7 15.686 56.6571C15.6431 56.6143 15.6003 56.6143 15.5146 56.6143C15.4717 56.5714 15.386 56.5714 15.3003 56.5714C15.1289 56.5714 15.0003 56.6143 14.9146 56.6571C14.8289 56.7429 14.786 56.8286 14.786 56.9571C14.786 57.0429 14.786 57.0857 14.8288 57.1286C14.8717 57.1714 14.8717 57.2143 14.9146 57.2571C14.9574 57.3 15.0003 57.3 15.086 57.3429C15.1717 57.3857 15.2574 57.3857 15.3431 57.4286C15.4717 57.4714 15.5574 57.4714 15.6431 57.5143C15.7289 57.5571 15.8146 57.6 15.8574 57.6429C15.9431 57.6857 15.986 57.7714 16.0289 57.8571C16.0717 57.9429 16.0717 58.0286 16.0717 58.1571C16.0717 58.2857 16.0289 58.3714 16.0289 58.4571C15.986 58.5429 15.9431 58.6286 15.8574 58.6714C15.7717 58.7143 15.686 58.7571 15.6003 58.8C15.5146 58.8429 15.386 58.8429 15.2574 58.8429C15.086 58.8429 14.9146 58.8 14.786 58.7571C14.6146 58.7143 14.486 58.5857 14.3574 58.5L14.486 58.2C14.5289 58.2429 14.5717 58.2857 14.6146 58.3286C14.6574 58.3714 14.7003 58.4143 14.786 58.4143C14.8717 58.4143 14.9574 58.4571 15.0003 58.5C15.086 58.5429 15.1717 58.5429 15.2574 58.5429C15.4288 58.5429 15.5574 58.5 15.6431 58.4571C15.7289 58.3714 15.7717 58.2857 15.7717 58.1571C15.7717 58.0714 15.7289 58.0286 15.7289 57.9857C15.686 57.9429 15.6431 57.9 15.6003 57.8571C15.5574 57.8143 15.4717 57.7714 15.386 57.7714C15.3003 57.7286 15.2146 57.7286 15.086 57.6857C15.0003 57.6429 14.8717 57.6 14.786 57.6C14.7003 57.5571 14.6146 57.5143 14.5717 57.4714C14.5289 57.4286 14.486 57.3857 14.4431 57.3C14.4003 57.2143 14.4003 57.1286 14.4003 57.0429C14.4003 56.9143 14.4431 56.8286 14.4431 56.7C14.486 56.6143 14.5288 56.5286 14.6146 56.4857C14.7003 56.4 14.786 56.4 14.8717 56.3143C14.9574 56.2714 15.086 56.2714 15.2146 56.2714C15.386 56.2714 15.5146 56.3143 15.6431 56.3571C15.7717 56.4 15.8574 56.4857 15.986 56.5714L15.9431 56.8286Z" fill="#9D9DA0"/>
<path d="M19.329 58.8857V56.9143L18.6004 58.4571H18.429L17.7004 56.9143V58.8857H17.4004V56.3143H17.7004L18.5147 57.9857L19.329 56.3143H19.629V58.8857H19.329Z" fill="#9D9DA0"/>
<path d="M20.8297 56.3143H21.044L21.9868 58.8857H21.6868L21.4297 58.1571H20.4868L20.2297 58.8857H19.9297L20.8297 56.3143ZM21.344 57.8571L20.9154 56.6571L20.4868 57.8571H21.344Z" fill="#9D9DA0"/>
<path d="M22.5871 56.9143V58.8857H22.2871V56.3143H22.5014L23.9157 58.3286V56.3143H24.2157V58.8857H24.0014L22.5871 56.9143Z" fill="#9D9DA0"/>
<path d="M25.4156 56.3143H25.6299L26.5728 58.8857H26.2728L26.0156 58.1571H25.0728L24.8156 58.8857H24.5156L25.4156 56.3143ZM25.9728 57.8571L25.5442 56.6571L25.1156 57.8571H25.9728Z" fill="#9D9DA0"/>
<path d="M28.5013 58.5429C28.287 58.7571 28.0727 58.8857 27.8156 58.8857C27.6441 58.8857 27.5156 58.8429 27.387 58.8C27.2584 58.7571 27.1727 58.6286 27.0441 58.5C26.9584 58.3714 26.8727 58.2429 26.8299 58.0714C26.787 57.9 26.7441 57.7714 26.7441 57.6C26.7441 57.4286 26.787 57.2571 26.8299 57.1286C26.8727 56.9571 26.9584 56.8286 27.0441 56.7C27.1299 56.5714 27.2584 56.4857 27.387 56.4C27.5156 56.3143 27.6441 56.3143 27.8156 56.3143C28.0299 56.3143 28.2013 56.3571 28.3727 56.4857C28.5013 56.5714 28.6299 56.7 28.7156 56.9143L28.5013 57.0857C28.4156 56.9143 28.3299 56.8286 28.2013 56.7429C28.1156 56.6571 27.987 56.6571 27.8156 56.6571C27.7299 56.6571 27.6013 56.7 27.5156 56.7429C27.4299 56.7857 27.3441 56.8714 27.3013 56.9571C27.2156 57.0429 27.1727 57.1714 27.1299 57.3C27.087 57.4286 27.087 57.5571 27.087 57.6857C27.087 57.8143 27.1299 57.9429 27.1299 58.0714C27.1727 58.2 27.2156 58.2857 27.3013 58.4143C27.387 58.5 27.4727 58.5857 27.5584 58.6286C27.6441 58.6714 27.7727 58.7143 27.8584 58.7143C28.1156 58.7143 28.3299 58.5857 28.5441 58.2857V57.9429H28.0727V57.6857H28.7156V58.9714H28.5013V58.5429Z" fill="#9D9DA0"/>
<path d="M30.7284 58.5857V58.8857H29.1855V56.3143H30.7284V56.6143H29.5284V57.4286H30.5998V57.7286H29.5284V58.5857H30.7284Z" fill="#9D9DA0"/>
<path d="M33.0868 58.8857V56.9143L32.3582 58.4571H32.1868L31.4582 56.9143V58.8857H31.1582V56.3143H31.4582L32.2725 57.9857L33.0868 56.3143H33.3868V58.8857H33.0868Z" fill="#9D9DA0"/>
<path d="M35.4432 58.5857V58.8857H33.9004V56.3143H35.4432V56.6143H34.2432V57.4286H35.3147V57.7286H34.2432V58.5857H35.4432Z" fill="#9D9DA0"/>
<path d="M36.1301 56.9143V58.8857H35.8301V56.3143H36.0444L37.4587 58.3286V56.3143H37.7586V58.8857H37.5444L36.1301 56.9143Z" fill="#9D9DA0"/>
<path d="M39.9425 56.6143H39.171V58.9286H38.871V56.6143H38.0996V56.3143H39.9425V56.6143Z" fill="#9D9DA0"/>
<path d="M42.3865 56.8286C42.3436 56.7857 42.3436 56.7429 42.3008 56.7429C42.2579 56.7 42.2151 56.7 42.1294 56.6571C42.0865 56.6143 42.0436 56.6143 41.9579 56.6143C41.9151 56.5714 41.8294 56.5714 41.7436 56.5714C41.5722 56.5714 41.4436 56.6143 41.3579 56.6571C41.2722 56.7429 41.2294 56.8286 41.2294 56.9571C41.2294 57.0429 41.2294 57.0857 41.2722 57.1286C41.3151 57.1714 41.3151 57.2143 41.3579 57.2571C41.4008 57.3 41.4436 57.3 41.5294 57.3429C41.6151 57.3857 41.7008 57.3857 41.7865 57.4286C41.9151 57.4714 42.0008 57.4714 42.0865 57.5143C42.1722 57.5571 42.2579 57.6 42.3008 57.6429C42.3865 57.6857 42.4294 57.7714 42.4722 57.8571C42.5151 57.9429 42.5151 58.0286 42.5151 58.1571C42.5151 58.2857 42.4722 58.3714 42.4722 58.4571C42.4294 58.5429 42.3865 58.6286 42.3008 58.6714C42.2151 58.7143 42.1294 58.7571 42.0436 58.8C41.9579 58.8429 41.8294 58.8429 41.7008 58.8429C41.5294 58.8429 41.3579 58.8 41.2294 58.7571C41.0579 58.7143 40.9294 58.5857 40.8008 58.5L40.9294 58.2C40.9722 58.2429 41.0151 58.2857 41.0579 58.3286C41.1008 58.3714 41.1436 58.4143 41.2294 58.4143C41.3151 58.4143 41.4008 58.4571 41.4436 58.5C41.5294 58.5429 41.6151 58.5429 41.7008 58.5429C41.8722 58.5429 42.0008 58.5 42.0865 58.4571C42.1722 58.3714 42.2151 58.2857 42.2151 58.1571C42.2151 58.0714 42.1722 58.0286 42.1722 57.9857C42.1294 57.9429 42.0865 57.9 42.0436 57.8571C42.0008 57.8143 41.9151 57.7714 41.8294 57.7714C41.7436 57.7286 41.6579 57.7286 41.5294 57.6857C41.4436 57.6429 41.3151 57.6 41.2294 57.6C41.1436 57.5571 41.0579 57.5143 41.0151 57.4714C40.9722 57.4286 40.9294 57.3857 40.8865 57.3C40.8436 57.2143 40.8436 57.1286 40.8436 57.0429C40.8436 56.9143 40.8865 56.8286 40.8865 56.7C40.9294 56.6143 40.9722 56.5286 41.0579 56.4857C41.1436 56.4 41.2294 56.4 41.3151 56.3143C41.4008 56.2714 41.5294 56.2714 41.6579 56.2714C41.8294 56.2714 41.9579 56.3143 42.0865 56.3571C42.2151 56.4 42.3008 56.4857 42.4294 56.5714L42.3865 56.8286Z" fill="#9D9DA0"/>
<path d="M42.9863 58.8857V56.3143H43.9292C44.0149 56.3143 44.1006 56.3571 44.2292 56.4C44.3149 56.4429 44.4006 56.4857 44.4435 56.5714C44.4863 56.6571 44.5292 56.7429 44.572 56.8286C44.6149 56.9143 44.6149 57.0429 44.6149 57.1286C44.6149 57.2143 44.572 57.3429 44.572 57.4286C44.5292 57.5143 44.4863 57.6 44.4435 57.6857C44.4006 57.7714 44.3149 57.8143 44.2292 57.8571C44.1435 57.9 44.0578 57.9429 43.9292 57.9429H43.2863V58.8857H42.9863ZM43.2863 57.6429H43.972C44.0149 57.6429 44.0578 57.6 44.1435 57.6C44.1863 57.5571 44.2292 57.5143 44.272 57.4714C44.3149 57.4286 44.3149 57.3857 44.3578 57.3C44.4006 57.2143 44.4006 57.1714 44.4006 57.0857C44.4006 57 44.4006 56.9143 44.3578 56.8714C44.3149 56.7857 44.3149 56.7429 44.272 56.7C44.2292 56.6571 44.1863 56.6143 44.1435 56.6143C44.1006 56.5714 44.0578 56.5714 43.972 56.5714H43.3292L43.2863 57.6429Z" fill="#9D9DA0"/>
<path d="M46.5429 58.5857V58.8857H45V56.3143H46.5429V56.6143H45.3429V57.4286H46.4143V57.7286H45.3429V58.5857H46.5429Z" fill="#9D9DA0"/>
<path d="M46.7578 57.6C46.7578 57.4286 46.8007 57.3 46.8435 57.1286C46.8864 56.9571 46.9721 56.8286 47.0578 56.7C47.1435 56.5714 47.2721 56.4857 47.4007 56.4C47.5292 56.3143 47.7007 56.3143 47.8721 56.3143C48.0864 56.3143 48.2578 56.3571 48.3864 56.4857C48.5578 56.5714 48.6435 56.7 48.6864 56.9143L48.4721 57.0857C48.4292 57 48.3864 56.9143 48.3435 56.8714C48.3007 56.8286 48.2578 56.7857 48.1721 56.7429C48.0864 56.7 48.0864 56.7 48.0007 56.6571C47.9578 56.6143 47.8721 56.6143 47.8292 56.6143C47.7007 56.6143 47.615 56.6571 47.4864 56.7C47.4007 56.7429 47.315 56.8286 47.2721 56.9143C47.1864 57 47.1864 57.1286 47.1007 57.2143C47.0578 57.3429 47.0578 57.4286 47.0578 57.5571C47.0578 57.6857 47.1007 57.8143 47.1007 57.9429C47.1435 58.0714 47.1864 58.1571 47.2721 58.2857C47.3578 58.3714 47.4435 58.4571 47.5292 58.5C47.615 58.5429 47.7435 58.5857 47.8292 58.5857C47.8721 58.5857 47.9578 58.5857 48.0007 58.5429C48.0435 58.5 48.1292 58.5 48.1721 58.4571C48.215 58.4143 48.2578 58.3714 48.3435 58.2857C48.3864 58.2429 48.4292 58.1571 48.4721 58.0714L48.6864 58.2429C48.6435 58.3286 48.6007 58.4143 48.515 58.5C48.4721 58.5857 48.3864 58.6286 48.3007 58.6714C48.215 58.7143 48.1292 58.7571 48.0435 58.8C47.9578 58.8429 47.8721 58.8429 47.7864 58.8429C47.615 58.8429 47.4864 58.8 47.3578 58.7143C47.2292 58.6286 47.1435 58.5429 47.015 58.4143C46.9292 58.2857 46.8435 58.1571 46.8007 57.9857C46.8007 57.9 46.7578 57.7286 46.7578 57.6Z" fill="#9D9DA0"/>
<path d="M49.1152 58.8857V56.3143H49.4152V58.8857H49.1152Z" fill="#9D9DA0"/>
<path d="M50.6148 56.3143H50.8291L51.772 58.8857H51.472L51.2148 58.1571H50.272L50.0148 58.8857H49.7148L50.6148 56.3143ZM51.1291 57.8571L50.7006 56.6571L50.272 57.8571H51.1291Z" fill="#9D9DA0"/>
<path d="M52.0723 58.8857V56.3143H52.3723V58.6286H53.658V58.9286H52.0723V58.8857Z" fill="#9D9DA0"/>
<path d="M53.957 58.8857V56.3143H54.257V58.8857H53.957Z" fill="#9D9DA0"/>
<path d="M56.1013 56.8286C56.0585 56.7857 56.0585 56.7429 56.0156 56.7429C55.9728 56.7 55.9299 56.7 55.8442 56.6571C55.8013 56.6143 55.7585 56.6143 55.6728 56.6143C55.6299 56.5714 55.5442 56.5714 55.4585 56.5714C55.2871 56.5714 55.1585 56.6143 55.0728 56.6571C54.9871 56.7429 54.9442 56.8286 54.9442 56.9571C54.9442 57.0429 54.9442 57.0857 54.9871 57.1286C55.0299 57.1714 55.0299 57.2143 55.0728 57.2571C55.1156 57.3 55.1585 57.3 55.2442 57.3429C55.3299 57.3857 55.4156 57.3857 55.5013 57.4286C55.6299 57.4714 55.7156 57.4714 55.8013 57.5143C55.8871 57.5571 55.9728 57.6 56.0156 57.6429C56.1013 57.6857 56.1442 57.7714 56.1871 57.8571C56.2299 57.9429 56.2299 58.0286 56.2299 58.1571C56.2299 58.2857 56.1871 58.3714 56.1871 58.4571C56.1442 58.5429 56.1013 58.6286 56.0156 58.6714C55.9299 58.7143 55.8442 58.7571 55.7585 58.8C55.6728 58.8429 55.5442 58.8429 55.4156 58.8429C55.2442 58.8429 55.0728 58.8 54.9442 58.7571C54.7728 58.7143 54.6442 58.5857 54.5156 58.5L54.6442 58.2C54.6871 58.2429 54.7299 58.2857 54.7728 58.3286C54.8156 58.3714 54.8585 58.4143 54.9442 58.4143C55.0299 58.4571 55.1156 58.4571 55.1585 58.5C55.2013 58.5429 55.3299 58.5429 55.4156 58.5429C55.5871 58.5429 55.7156 58.5 55.8013 58.4571C55.8871 58.3714 55.9299 58.2857 55.9299 58.1571C55.9299 58.0714 55.8871 58.0286 55.8871 57.9857C55.8442 57.9429 55.8013 57.9 55.7585 57.8571C55.7156 57.8143 55.6299 57.7714 55.5442 57.7714C55.4585 57.7286 55.3728 57.7286 55.2442 57.6857C55.1585 57.6429 55.0299 57.6 54.9442 57.6C54.8585 57.5571 54.7728 57.5143 54.7299 57.4714C54.6871 57.4286 54.6442 57.3857 54.6013 57.3C54.5585 57.2143 54.5585 57.1286 54.5585 57.0429C54.5585 56.9143 54.6013 56.8286 54.6013 56.7C54.6442 56.6143 54.6871 56.5286 54.7728 56.4857C54.8585 56.4 54.9442 56.4 55.0299 56.3143C55.1156 56.2714 55.2442 56.2714 55.3728 56.2714C55.5442 56.2714 55.6728 56.3143 55.8013 56.3571C55.9299 56.4 56.0156 56.4857 56.1442 56.5714L56.1013 56.8286Z" fill="#9D9DA0"/>
<path d="M58.3722 56.6143H57.6007V58.9286H57.3007V56.6143H56.5293V56.3143H58.3722V56.6143Z" fill="#9D9DA0"/>
<path d="M23.443 26.7429L58.3716 26.3571V25.9286L23.3145 25.5429C23.4859 25.8857 23.5287 26.3143 23.443 26.7429Z" fill="#9D9DA0"/>
<path d="M22.2012 22.5L58.3726 22.0714V21.6429L22.9726 21.2143C22.6726 21.5571 22.3726 21.9857 22.2012 22.5Z" fill="#9D9DA0"/>
<path d="M22.0293 23.4429C22.0722 23.7429 22.415 24.1286 22.7579 24.6429L58.3722 24.2571V23.8286L22.0293 23.4C22.0293 23.4 22.0293 23.4 22.0293 23.4429Z" fill="#9D9DA0"/>
<path d="M22.8871 27.8571C22.5013 28.3286 22.0299 28.6714 21.5156 28.9286L58.3728 28.5V28.0714L23.0156 27.6857C22.9728 27.7286 22.9299 27.8143 22.8871 27.8571Z" fill="#9D9DA0"/>
<path d="M13.8008 33.2143L58.3722 32.7857V32.3571L13.8436 31.9286L13.8008 33.2143Z" fill="#9D9DA0"/>
<path d="M13.8866 30.2143L13.8438 31.0714L58.3295 30.6429V30.2143L14.3152 29.7857C13.9723 30 13.8866 30.2143 13.8866 30.2143Z" fill="#9D9DA0"/>
<path d="M23.4863 19.8429C23.6149 20.0143 23.6578 20.1857 23.6149 20.3571L58.372 19.9286V19.5L23.872 19.0714C23.7006 19.4571 23.4863 19.8429 23.4863 19.8429Z" fill="#9D9DA0"/>
<path d="M26.0578 13.1571C26.0578 13.3714 26.0578 13.6286 25.9721 13.9286L58.3292 13.5V13.0714L25.7578 12.6429C25.9721 12.9 26.0578 13.0714 26.0578 13.1571Z" fill="#9D9DA0"/>
<path d="M21.9863 5.35714L58.372 4.92857V4.5L22.2435 4.07143C22.2006 4.54285 22.1149 4.97143 21.9863 5.35714Z" fill="#9D9DA0"/>
<path d="M22.0293 1.92857C22.2864 2.27143 22.2864 2.65714 22.2864 3.21428L58.3722 2.78571V2.35714L22.0293 1.92857Z" fill="#9D9DA0"/>
<path d="M24.1726 18.1714L58.3726 17.7857V17.3571L23.7012 16.9286C23.8726 17.3143 24.1726 17.9143 24.1726 18.1714Z" fill="#9D9DA0"/>
<path d="M21.6437 7.5L58.3722 7.07143V6.64285L21.7294 6.21428C21.6008 6.68571 21.5151 7.07143 21.6437 7.5Z" fill="#9D9DA0"/>
<path d="M24.8153 15.0429C24.0439 15.3429 23.7439 15.7286 23.6582 16.0714L58.3725 15.6429V15.2143L25.2439 14.8286C25.1153 14.8714 24.9868 14.9571 24.8153 15.0429Z" fill="#9D9DA0"/>
<path d="M23.2727 9.64285L58.3727 9.21428V8.78571L22.2441 8.35714C22.4584 8.65714 22.8441 9.12857 23.2727 9.64285Z" fill="#9D9DA0"/>
<path d="M25.0714 11.7429L58.3714 11.3571V10.9286L24 10.5C24.3857 10.9286 24.7714 11.3571 25.0714 11.7429Z" fill="#9D9DA0"/>
</svg>
